<svg xmlns="http://www.w3.org/2000/svg" viewBox="0 0 490.7 512">
    <path fill="#FFBC00" d="M298.7 426.7a85.3 85.3 0 11-170.6 0 85.3 85.3 0 01170.6 0z"/>
    <path fill="#FDCC00" d="M362.8 254.3A149.4 149.4 0 01247.2 46.8 149.5 149.5 0 0064 192v59.5c0 42.2-18.5 82.1-50.9 109.5a37.2 37.2 0 0024.2 65.6h352a37.3 37.3 0 0024-65.8 143.1 143.1 0 01-50.5-106.5z"/>
    <path fill="#324CCE" d="M384 0a106.7 106.7 0 100 213.5A106.7 106.7 0 00384 0zm9.3 166.8a15.4 15.4 0 01-11.2 3.9c-4.9 0-8.7-1.3-11.4-3.8-2.7-2.5-4-6.1-4-10.6 0-4.7 1.3-8.3 3.9-10.8 2.6-2.4 6.5-3.6 11.5-3.6 4.9 0 8.6 1.2 11.3 3.7 2.7 2.5 4 6.1 4 10.7 0 4.4-1.4 8-4.1 10.5zm29-77.3a62.4 62.4 0 01-16.7 15.3c-5.6 4-9.2 7.1-10.7 9.2a13.7 13.7 0 00-2.2 8.2c0 2.8-2.3 5.1-5.1 5.1h-13.1a5.1 5.1 0 01-5.1-5.1V121c0-5.4 1.2-10.1 3.6-14.2 2.4-4 6.8-8.3 13.2-12.8a57.7 57.7 0 0012.2-10.3c2-2.7 2.9-5.6 2.9-8.9 0-3.7-1.4-6.5-4.2-8.4a20.8 20.8 0 00-11.8-2.9c-7.6 0-16.2 2.1-25.7 6.3a5 5 0 01-6.5-2.3l-5-9.7a5.2 5.2 0 012.4-7 85 85 0 0136.8-8.2c12 0 21.6 2.8 28.7 8.4a27.2 27.2 0 0110.7 22.4c0 6.2-1.5 11.6-4.4 16.1z"/>
</svg>
