<svg xmlns="http://www.w3.org/2000/svg" viewBox="0 0 426.7 512">
    <path fill="#A3A3A3" d="M298.7 426.7a85.3 85.3 0 11-170.6 0 85.3 85.3 0 01170.6 0z"/>
    <path fill="#C9C9C9" d="M426.6 387.3a37.1 37.1 0 00-13-26.3l-.1-.1-.1-.1-2.9-2.5c-3.9-3.5-7.6-7.1-11-11l-.4-.4-2.1-2.4-1.4-1.7-1-1.2a143.5 143.5 0 01-31.8-87.3h-.1V192c0-82.3-67-149.3-149.3-149.3C131 42.7 64 109.7 64 192v62.3h-.1a142.9 142.9 0 01-31.8 87.3l-1 1.2-1.4 1.7-2.1 2.4-.4.4a163 163 0 01-13.9 13.5l-.1.1-.1.1a37.1 37.1 0 00-13 26.3l-.1 2.1a37.4 37.4 0 0037.4 37.3h352a37.4 37.4 0 0037.4-37.3l-.2-2.1z"/>
</svg>
